<?xml version="1.0" encoding="iso-8859-1"?>
<!-- Generator: Adobe Illustrator 18.0.0, SVG Export Plug-In . SVG Version: 6.00 Build 0)  -->
<!DOCTYPE svg PUBLIC "-//W3C//DTD SVG 1.1//EN" "http://www.w3.org/Graphics/SVG/1.1/DTD/svg11.dtd">
<svg version="1.1" id="Capa_1" xmlns="http://www.w3.org/2000/svg" xmlns:xlink="http://www.w3.org/1999/xlink" x="0px" y="0px"
	 viewBox="0 0 153.559 153.559" style="enable-background:new 0 0 153.559 153.559;" xml:space="preserve">
<g>
	<path style="fill:#F16268;" d="M8.758,33.796c0,13.409,10.91,24.319,24.32,24.319c4.682,0,9.042-1.352,12.757-3.653L30.87,35.54
		c-0.669-0.847-0.795-2.001-0.326-2.972c0.471-0.971,1.455-1.587,2.534-1.587h24.142C55.818,18.894,45.534,9.475,33.078,9.475
		C19.668,9.475,8.758,20.386,8.758,33.796z"/>
	<polygon style="fill:#F16268;" points="85.242,95.215 119.628,51.739 50.857,51.739 	"/>
	<polygon style="fill:#FFFFFF;" points="38.892,36.61 46.405,46.109 124.08,46.109 131.593,36.61 	"/>
	<path style="fill:#FFFFFF;" d="M47.366,13.298c0,0-20.333-5.667-30.667,7c-10.333,12.666-3,32,10.667,38.333
		c0,0-18.333-2-21.333-24S33.033-3.702,47.366,13.298z"/>
	<polygon style="fill:#FFFFFF;" points="57.366,49.632 85.242,95.215 46.7,49.299 	"/>
	<polygon style="fill:#FFFFFF;" points="63.033,49.965 85.242,95.215 66.367,50.299 	"/>
	<g>
		<path style="fill:#25555E;" d="M149.386,0.628c-1.215-0.979-2.983-0.795-3.96,0.418l-24.199,29.935H62.882
			C61.458,15.783,48.642,3.846,33.078,3.846c-16.514,0-29.949,13.436-29.949,29.95c0,16.514,13.436,29.949,29.949,29.949
			c6,0,11.581-1.791,16.271-4.841l33.079,41.825v47.201H50.774c-1.554,0-2.814,1.261-2.814,2.814s1.261,2.814,2.814,2.814h68.938
			c1.554,0,2.814-1.261,2.814-2.814s-1.261-2.814-2.814-2.814H88.056v-47.201l51.56-65.189c0.669-0.847,0.795-2.001,0.326-2.972
			c-0.472-0.971-1.455-1.587-2.534-1.587h-8.939l21.337-26.394C150.783,3.377,150.593,1.603,149.386,0.628z M57.219,30.981H33.078
			c-1.079,0-2.063,0.616-2.534,1.587c-0.469,0.971-0.343,2.125,0.326,2.972l14.965,18.922c-3.714,2.302-8.075,3.653-12.757,3.653
			c-13.41,0-24.32-10.91-24.32-24.319c0-13.41,10.91-24.32,24.32-24.32C45.534,9.475,55.818,18.894,57.219,30.981z M50.857,51.739
			h68.771L85.242,95.215L50.857,51.739z M124.08,46.109H46.405l-7.513-9.499h92.701L124.08,46.109z"/>
	</g>
</g>
<g>
</g>
<g>
</g>
<g>
</g>
<g>
</g>
<g>
</g>
<g>
</g>
<g>
</g>
<g>
</g>
<g>
</g>
<g>
</g>
<g>
</g>
<g>
</g>
<g>
</g>
<g>
</g>
<g>
</g>
</svg>
